<svg width="122" height="122" viewBox="0 0 122 122" fill="none" xmlns="http://www.w3.org/2000/svg">
<mask id="mask0_2011_276" style="mask-type:luminance" maskUnits="userSpaceOnUse" x="0" y="0" width="122" height="122">
<path d="M98.7655 0H22.6071C10.1215 0 0 10.1739 0 22.7239V99.2761C0 111.826 10.1215 122 22.6071 122H98.7655C111.251 122 121.373 111.826 121.373 99.2761V22.7239C121.373 10.1739 111.251 0 98.7655 0Z" fill="white"/>
</mask>
<g mask="url(#mask0_2011_276)">
<path d="M3.21269 0L0 2.0406V0H3.21269Z" fill="#009966"/>
<path d="M8.47518 0L0 5.38876V2.0406L3.21269 0H8.47518Z" fill="#009966"/>
<path d="M13.7574 0L0 8.71712V5.38876L8.47518 0H13.7574Z" fill="#009966"/>
<path d="M19.0199 0L0 12.0653V8.71712L13.7574 0H19.0199Z" fill="#009966"/>
<path d="M24.3021 0L0 15.4134V12.0653L19.0199 0H24.3021Z" fill="#009966"/>
<path d="M29.5646 0L0 18.7616V15.4134L24.3021 0H29.5646Z" fill="#009966"/>
<path d="M34.8271 0L0 22.09V18.7616L29.5646 0H34.8271Z" fill="#009966"/>
<path d="M40.1093 0L0 25.4381V22.09L34.8271 0H40.1093Z" fill="#009966"/>
<path d="M45.3718 0L0 28.7863V25.4381L40.1093 0H45.3718Z" fill="#009966"/>
<path d="M50.654 0L0 32.1345V28.7863L45.3718 0H50.654Z" fill="#009966"/>
<path d="M55.9165 0L0 35.4628V32.1345L50.654 0H55.9165Z" fill="#009966"/>
<path d="M61.1987 0L0 38.811V35.4628L55.9165 0H61.1987Z" fill="#009966"/>
<path d="M66.4612 0L0 42.1591V38.811L61.1987 0H66.4612Z" fill="#009966"/>
<path d="M71.7434 0L0 45.5073V42.1591L66.4612 0H71.7434Z" fill="#009966"/>
<path d="M77.0059 0L0 48.8555V45.5073L71.7434 0H77.0059Z" fill="#009966"/>
<path d="M82.2684 0L0 52.1838V48.8555L77.0059 0H82.2684Z" fill="#009966"/>
<path d="M87.5506 0L0 55.532V52.1838L82.2684 0H87.5506Z" fill="#009966"/>
<path d="M92.8131 0L0 58.8801V55.532L87.5506 0H92.8131Z" fill="#009966"/>
<path d="M98.0953 0L0 62.2283V58.8802L92.8131 0H98.0953Z" fill="#009966"/>
<path d="M103.358 0L0 65.5567V62.2283L98.0953 0H103.358Z" fill="#009966"/>
<path d="M108.64 0L0 68.9048V65.5567L103.358 0H108.64Z" fill="#009966"/>
<path d="M113.903 0L0 72.253V68.9048L108.64 0H113.903Z" fill="#009966"/>
<path d="M119.165 0L0 75.6012V72.253L113.903 0H119.165Z" fill="#009966"/>
<path d="M119.658 0L121.018 2.17928L0 78.9493V75.6012L119.165 0H119.658Z" fill="#009966"/>
<path d="M121.018 2.17969L121.373 2.75422V5.29011L0 82.2781V78.9497L121.018 2.17969Z" fill="#009966"/>
<path d="M121.373 8.63723L0 85.6252V82.277L121.373 5.28906V8.63723Z" fill="#009966"/>
<path d="M121.373 11.9868L0 88.9748V85.6266L121.373 8.63867V11.9868Z" fill="#009966"/>
<path d="M121.373 15.3147L0 92.3225V88.9743L121.373 11.9863V15.3147Z" fill="#009966"/>
<path d="M121.373 18.6626L0 95.6506V92.3222L121.373 15.3145V18.6626Z" fill="#009966"/>
<path d="M121.373 22.0103L0 98.9983V95.6501L121.373 18.6621V22.0103Z" fill="#009966"/>
<path d="M121.373 25.3579L0 102.346V98.9977L121.373 22.0098V25.3579Z" fill="#009966"/>
<path d="M121.373 28.6877L0 105.696V102.347L121.373 25.3594V28.6877Z" fill="#009966"/>
<path d="M121.373 32.0357L0 109.024V105.695L121.373 28.6875V32.0357Z" fill="#009966"/>
<path d="M121.373 35.3833L0 112.371V109.023L121.373 32.0352V35.3833Z" fill="#009966"/>
<path d="M121.373 38.731L0 115.719V112.371L121.373 35.3828V38.731Z" fill="#009966"/>
<path d="M121.373 42.0608L0 119.069V115.72L121.373 38.7324V42.0608Z" fill="#009966"/>
<path d="M121.373 45.4087L1.4191 121.505L0 119.266V119.068L121.373 42.0605V45.4087Z" fill="#009966"/>
<path d="M121.372 48.7564L5.89305 122H1.71459L1.41895 121.505L121.372 45.4082V48.7564Z" fill="#009966"/>
<path d="M121.373 52.104L11.1758 121.999H5.89355L121.373 48.7559V52.104Z" fill="#009966"/>
<path d="M121.373 55.4536L16.4383 122.001H11.1758L121.373 52.1055V55.4536Z" fill="#009966"/>
<path d="M121.372 58.7815L21.7197 122H16.4375L121.372 55.4531V58.7815Z" fill="#009966"/>
<path d="M121.372 62.1294L26.9822 122H21.7197L121.372 58.7812V62.1294Z" fill="#009966"/>
<path d="M121.372 65.4771L32.2646 122H26.9824L121.372 62.1289V65.4771Z" fill="#009966"/>
<path d="M121.372 68.8247L37.5271 121.999H32.2646L121.372 65.4766V68.8247Z" fill="#009966"/>
<path d="M121.373 72.1545L42.8095 122.001H37.5273L121.373 68.8262V72.1545Z" fill="#009966"/>
<path d="M121.373 75.5025L48.0721 122H42.8096L121.373 72.1543V75.5025Z" fill="#009966"/>
<path d="M121.373 78.8501L53.3348 122H48.0723L121.373 75.502V78.8501Z" fill="#009966"/>
<path d="M121.373 82.1978L58.6172 121.999H53.335L121.373 78.8496V82.1978Z" fill="#009966"/>
<path d="M121.373 85.5474L63.8797 122.001H58.6172L121.373 82.1992V85.5474Z" fill="#009966"/>
<path d="M121.372 88.8752L69.1611 122H63.8789L121.372 85.5469V88.8752Z" fill="#009966"/>
<path d="M121.372 92.2232L74.4236 122H69.1611L121.372 88.875V92.2232Z" fill="#009966"/>
<path d="M121.372 95.5708L79.706 122H74.4238L121.372 92.2227V95.5708Z" fill="#009966"/>
<path d="M121.372 98.9185L84.9686 121.999H79.7061L121.372 95.5703V98.9185Z" fill="#009966"/>
<path d="M121.373 102.248L90.251 122H84.9688L121.373 98.9199V102.248Z" fill="#009966"/>
<path d="M121.373 105.596L95.5135 122H90.251L121.373 102.248V105.596Z" fill="#009966"/>
<path d="M121.373 108.944L100.776 122H95.5137L121.373 105.596V108.944Z" fill="#009966"/>
<path d="M121.372 112.292L106.058 121.999H100.775L121.372 108.943V112.292Z" fill="#009966"/>
<path d="M121.372 115.621L111.32 122.001H106.058L121.372 112.293V115.621Z" fill="#009966"/>
<path d="M121.372 118.969L116.603 122H111.32L121.372 115.621V118.969Z" fill="#009966"/>
<path d="M116.603 122L121.372 118.969V122H116.603Z" fill="#009966"/>
</g>
<path d="M64.451 73.0446H43.1645L23.0605 51.0537L43.1645 29.043H64.451L44.2485 51.0537L64.451 73.0446Z" fill="white"/>
<path d="M59.8389 49.9238H81.1254L101.229 71.9147L81.1254 93.9056H59.8389L80.0413 71.9147L59.8389 49.9238Z" fill="white"/>
<mask id="mask1_2011_276" style="mask-type:luminance" maskUnits="userSpaceOnUse" x="23" y="29" width="42" height="45">
<path d="M64.451 73.0446H43.1645L23.0605 51.0537L43.1645 29.043H64.451L44.2485 51.0537L64.451 73.0446Z" fill="white"/>
</mask>
<g mask="url(#mask1_2011_276)">
<path d="M58.2422 21.1973L33.1123 51.0534L55.3843 77.0462" stroke="#009966" stroke-miterlimit="10"/>
</g>
<mask id="mask2_2011_276" style="mask-type:luminance" maskUnits="userSpaceOnUse" x="60" y="49" width="42" height="45">
<path d="M60.0361 49.5879H81.3226L101.427 71.5986L81.3226 93.5895H60.0361L80.2386 71.5986L60.0361 49.5879Z" fill="white"/>
</mask>
<g mask="url(#mask2_2011_276)">
<path d="M66.2246 101.454L91.3742 71.5983L69.1022 45.6055" stroke="#009966" stroke-miterlimit="10"/>
</g>
</svg>
