<?xml version="1.0" standalone="no"?>
<!DOCTYPE svg PUBLIC "-//W3C//DTD SVG 20010904//EN"
 "http://www.w3.org/TR/2001/REC-SVG-20010904/DTD/svg10.dtd">
<svg version="1.0" xmlns="http://www.w3.org/2000/svg"
 width="276.000000pt" height="276.000000pt" viewBox="0 0 276.000000 276.000000"
 preserveAspectRatio="xMidYMid meet">
<metadata>
Created by potrace 1.14, written by Peter Selinger 2001-2017
</metadata>
<g transform="translate(0.000000,276.000000) scale(0.100000,-0.100000)"
fill="#000000" stroke="none">
<path d="M218 2736 c-68 -28 -115 -66 -152 -121 -59 -88 -57 -41 -54 -1256 l3
-1114 26 -55 c33 -70 89 -126 159 -159 l55 -26 1130 0 1130 0 50 25 c73 36
138 105 165 176 l23 59 -1 1115 0 1115 -22 59 c-27 71 -97 146 -167 179 l-48
22 -1120 2 -1120 3 -57 -24z"/>
</g>
</svg>
