<svg xmlns="http://www.w3.org/2000/svg" fill="none" viewBox="0 0 421 69"><g clip-path="url(#a)"><path fill="#fff" d="M106.111 29.255h17.207q.149.593.245 1.429c.063.556.098 1.12.098 1.676 0 2.267-.343 4.407-1.029 6.407a14.8 14.8 0 0 1-3.234 5.372 16.1 16.1 0 0 1-5.636 3.893c-2.191.923-4.69 1.38-7.497 1.38-2.548 0-4.949-.457-7.203-1.38q-3.382-1.383-5.88-3.844-2.5-2.461-3.97-5.844-1.47-3.38-1.47-7.371 0-3.993 1.47-7.372c.98-2.253 2.303-4.196 3.97-5.844q2.498-2.46 5.88-3.844c2.254-.923 4.655-1.38 7.203-1.38q4.263 0 7.623 1.478 3.36 1.48 5.762 4.091l-4.558 4.485c-1.141-1.218-2.422-2.147-3.822-2.788-1.407-.64-3.087-.965-5.047-.965q-2.404 0-4.557.866a11.4 11.4 0 0 0-3.773 2.443c-1.078 1.05-1.94 2.324-2.576 3.824-.637 1.492-.96 3.16-.96 5.006 0 1.844.323 3.506.96 5.006q.957 2.239 2.597 3.823a11.7 11.7 0 0 0 3.801 2.443c1.435.577 2.975.859 4.606.859q2.791.001 4.732-.81c1.295-.542 2.394-1.239 3.311-2.098.651-.591 1.219-1.338 1.695-2.246.476-.901.84-1.915 1.106-3.035h-11.026v-5.667zm23.037-15.927h11.866q4.168.002 7.497 1.282c2.219.851 4.117 2.063 5.685 3.626q2.354 2.344 3.605 5.597c.833 2.169 1.253 4.555 1.253 7.147 0 2.59-.42 5.027-1.253 7.195q-1.251 3.255-3.605 5.57c-1.568 1.541-3.466 2.745-5.685 3.597-2.226.852-4.725 1.282-7.497 1.282h-11.866zm11.572 28.987q2.89-.001 5.096-.817c1.47-.542 2.695-1.31 3.675-2.295.98-.986 1.715-2.175 2.206-3.577q.735-2.093.735-4.66c0-1.712-.245-3.26-.735-4.662-.491-1.394-1.226-2.59-2.206-3.576q-1.47-1.481-3.675-2.296-2.207-.814-5.096-.816h-4.949v22.678h4.949zm37.691 3.746h-.392a10.8 10.8 0 0 1-2.723 2.366q-1.596.984-4.095.986a10 10 0 0 1-3.507-.613 9.1 9.1 0 0 1-2.87-1.704 7.5 7.5 0 0 1-1.911-2.612c-.455-1.02-.686-2.133-.686-3.351 0-1.219.245-2.373.735-3.38q.735-1.502 2.058-2.591 1.321-1.086 3.115-1.655 1.787-.57 3.899-.57 2.35.002 3.871.373c1.015.247 1.848.5 2.499.768v-.74q.002-1.923-1.519-3.182c-1.015-.838-2.268-1.26-3.773-1.26q-3.337 0-5.635 2.809l-4.655-3.204c2.548-3.217 6.027-4.83 10.437-4.83q5.586 0 8.526 2.64 2.941 2.64 2.941 7.816v14.497h-6.322v-2.563zm0-7.245a13.6 13.6 0 0 0-2.331-.866 10.2 10.2 0 0 0-2.625-.324c-1.533 0-2.723.338-3.556 1.014q-1.251 1.014-1.253 2.493t1.204 2.365q1.197.888 2.772.888 1.27.002 2.352-.472a5.9 5.9 0 0 0 1.841-1.232 5.5 5.5 0 0 0 1.176-1.775q.42-1.014.42-2.09m11.228-14.35h6.027v2.908h.392c.588-1.021 1.505-1.887 2.744-2.613 1.239-.725 2.779-1.084 4.606-1.084q2.3.002 4.39.965a11.8 11.8 0 0 1 3.675 2.661q1.594 1.703 2.527 4.07t.931 5.175q.002 2.81-.931 5.175-.933 2.367-2.527 4.07a11.8 11.8 0 0 1-3.675 2.66q-2.08.964-4.39.965-2.75.002-4.606-1.084c-1.239-.725-2.156-1.591-2.744-2.612h-.392l.392 3.45v10.104h-6.419zm12.446 18.982q1.272.002 2.429-.493a6.4 6.4 0 0 0 2.037-1.38q.885-.89 1.422-2.169c.357-.851.539-1.81.539-2.858 0-1.05-.182-2.007-.539-2.859q-.537-1.28-1.422-2.168a6.4 6.4 0 0 0-2.037-1.38 6.1 6.1 0 0 0-2.429-.493 6.3 6.3 0 0 0-2.429.472 6 6 0 0 0-2.037 1.358q-.884.89-1.421 2.169-.537 1.28-.539 2.908.002 1.628.539 2.908a6.7 6.7 0 0 0 1.421 2.168 6.1 6.1 0 0 0 2.037 1.36c.77.309 1.575.47 2.429.47zm16.276-18.982h6.028v2.908h.392c.588-1.021 1.505-1.887 2.744-2.613 1.239-.725 2.779-1.084 4.606-1.084q2.3.002 4.389.965a11.8 11.8 0 0 1 3.675 2.661q1.594 1.703 2.527 4.07c.624 1.577.932 3.302.932 5.175s-.308 3.598-.932 5.175q-.933 2.367-2.527 4.07a11.8 11.8 0 0 1-3.675 2.66 10.3 10.3 0 0 1-4.389.965q-2.75.002-4.606-1.084c-1.239-.725-2.156-1.591-2.744-2.612h-.392l.392 3.45v10.104h-6.42zm12.454 18.982q1.272.002 2.429-.493a6.4 6.4 0 0 0 2.037-1.38q.884-.89 1.421-2.169c.357-.851.539-1.81.539-2.858 0-1.05-.182-2.007-.539-2.859q-.537-1.28-1.421-2.168a6.4 6.4 0 0 0-2.037-1.38 6.1 6.1 0 0 0-2.429-.493 6.3 6.3 0 0 0-2.429.472 6 6 0 0 0-2.037 1.358q-.884.89-1.421 2.169-.537 1.28-.539 2.908.002 1.628.539 2.908a6.7 6.7 0 0 0 1.421 2.168 6.1 6.1 0 0 0 2.037 1.36c.77.309 1.575.47 2.429.47zm26.224 5.963q-2.355 0-4.194-.591c-1.225-.394-2.289-.908-3.185-1.556a10.4 10.4 0 0 1-2.282-2.218 10.6 10.6 0 0 1-1.421-2.542l5.733-2.464c.553 1.246 1.302 2.176 2.233 2.788q1.395.918 3.116.916c1.148 0 2.107-.212 2.793-.641q1.029-.643 1.029-1.528-.002-.982-.854-1.605c-.574-.409-1.561-.782-2.968-1.106l-3.382-.739a12 12 0 0 1-2.331-.789 9.3 9.3 0 0 1-2.184-1.38 7 7 0 0 1-1.617-2.02q-.639-1.185-.637-2.76-.002-1.772.763-3.155a7.1 7.1 0 0 1 2.086-2.344q1.321-.96 3.115-1.479c1.19-.345 2.478-.52 3.851-.52 2.289 0 4.326.45 6.125 1.358 1.799.901 3.122 2.345 3.969 4.316l-5.537 2.267q-.684-1.425-2.009-2.07c-.882-.43-1.764-.64-2.646-.64-.883 0-1.716.19-2.402.57q-1.029.57-1.029 1.457.002.834.854 1.331.86.496 2.332.887l3.675.887c2.45.592 4.27 1.535 5.467 2.838 1.19 1.295 1.792 2.837 1.792 4.611 0 1.05-.245 2.056-.735 3.007-.49.958-1.183 1.802-2.086 2.542q-1.354 1.108-3.234 1.753c-1.253.43-2.653.64-4.193.64zm34.994.001q-2.256.001-4.312-.641a12.5 12.5 0 0 1-3.774-1.922 13.2 13.2 0 0 1-2.989-3.133c-.854-1.233-1.519-2.669-2.009-4.316l6.224-2.465c.455 1.775 1.26 3.246 2.401 4.415q1.713 1.753 4.508 1.753 1.03-.002 1.988-.268a5.7 5.7 0 0 0 1.715-.788 3.84 3.84 0 0 0 1.204-1.31q.441-.79.441-1.823c0-.69-.112-1.247-.343-1.775s-.609-1.02-1.155-1.478q-.807-.687-2.107-1.33-1.302-.645-3.213-1.332l-2.156-.788a17 17 0 0 1-2.87-1.33 12.6 12.6 0 0 1-2.626-2.022c-.791-.788-1.428-1.718-1.939-2.788-.504-1.07-.756-2.274-.756-3.626s.273-2.668.805-3.872a9.5 9.5 0 0 1 2.303-3.155c.994-.9 2.192-1.612 3.578-2.119s2.933-.767 4.634-.767 3.29.24 4.585.718c1.288.479 2.387 1.084 3.283 1.823q1.344 1.112 2.184 2.444.838 1.33 1.225 2.513l-5.831 2.465q-.492-1.479-1.792-2.662t-3.556-1.183c-1.505 0-2.632.338-3.577 1.014-.952.676-1.421 1.556-1.421 2.64s.455 1.95 1.372 2.69 2.366 1.457 4.361 2.147l2.205.74a25 25 0 0 1 3.85 1.704 12 12 0 0 1 2.989 2.295 9.4 9.4 0 0 1 1.911 3.035c.441 1.133.658 2.443.658 3.921 0 1.838-.371 3.43-1.106 4.76q-1.1 1.994-2.821 3.28a12.3 12.3 0 0 1-3.871 1.923 14.6 14.6 0 0 1-4.214.64zm18.089-19.419h-4.214v-5.52h4.214V17.08h6.42v7.393h5.88v5.52h-5.88v9.653q-.002.867.175 1.598c.112.493.336.908.658 1.246.455.542 1.113.81 1.96.81q.83.002 1.323-.176c.329-.113.637-.275.931-.472l1.813 5.668c-.749.36-1.561.634-2.429.81s-1.82.274-2.87.274c-1.211 0-2.296-.197-3.262-.577-.966-.387-1.771-.915-2.429-1.584q-2.302-2.26-2.304-6.442V29.98zm33.622 15.476h-.392a8.2 8.2 0 0 1-3.038 2.887c-1.274.704-2.73 1.063-4.361 1.063q-4.555 0-6.79-2.81c-1.484-1.872-2.233-4.372-2.233-7.491V24.474h6.419V38.33c0 1.74.385 3.035 1.155 3.873q1.155 1.259 3.36 1.26 1.323 0 2.331-.57a5.5 5.5 0 0 0 1.715-1.528q.712-.959 1.078-2.267a10.2 10.2 0 0 0 .371-2.788V24.474h6.42v24.157h-6.028v-3.154zm29.171.246h-.392c-.588 1.021-1.505 1.887-2.744 2.612s-2.779 1.084-4.606 1.084q-2.3-.001-4.389-.964a11.8 11.8 0 0 1-3.675-2.662q-1.595-1.701-2.528-4.07-.933-2.364-.931-5.174-.002-2.81.931-5.175.933-2.367 2.528-4.07a11.8 11.8 0 0 1 3.675-2.661 10.3 10.3 0 0 1 4.389-.965c1.827 0 3.367.36 4.606 1.085s2.156 1.59 2.744 2.612h.392l-.392-3.45V13.32h6.42v35.303h-6.028zm-6.426-2.267q1.272.002 2.429-.472a5.9 5.9 0 0 0 2.03-1.359 6.8 6.8 0 0 0 1.421-2.168q.537-1.28.539-2.908-.002-1.628-.539-2.908t-1.421-2.169a6.2 6.2 0 0 0-2.03-1.358 6.4 6.4 0 0 0-2.429-.472c-.854 0-1.659.162-2.429.493a6.4 6.4 0 0 0-2.037 1.38q-.884.888-1.421 2.168c-.357.852-.539 1.81-.539 2.859s.182 2.007.539 2.858a6.7 6.7 0 0 0 1.421 2.169 6.4 6.4 0 0 0 2.037 1.38c.77.33 1.575.493 2.429.493zm21.518-22.235a4 4 0 0 1-1.596-.324 4 4 0 0 1-1.323-.887 4.2 4.2 0 0 1-.882-1.31 4.1 4.1 0 0 1-.315-1.626q0-.887.315-1.626.315-.74.882-1.31t1.323-.887a4.1 4.1 0 0 1 1.596-.324q1.711-.002 2.94 1.21 1.227 1.205 1.225 2.937c0 1.155-.406 2.126-1.225 2.936-.819.803-1.799 1.211-2.94 1.211m-3.185 27.41V24.467h6.419v24.157zm23.43-24.946q2.794.002 5.125.965 2.33.96 4.018 2.661 1.69 1.703 2.646 4.07.957 2.366.959 5.175-.002 2.81-.959 5.175-.955 2.367-2.646 4.07-1.689 1.7-4.018 2.66-2.331.964-5.125.965-2.793-.001-5.124-.964-2.33-.96-4.018-2.662-1.69-1.701-2.646-4.07-.954-2.364-.952-5.174-.002-2.81.952-5.175.955-2.367 2.646-4.07 1.689-1.7 4.018-2.661c1.554-.64 3.262-.965 5.124-.965m0 19.77q1.227.002 2.38-.47c.77-.31 1.45-.768 2.038-1.36q.884-.888 1.4-2.168t.518-2.908c0-1.084-.168-2.056-.518-2.908-.343-.852-.805-1.577-1.4-2.169a6.2 6.2 0 0 0-2.038-1.358 6.3 6.3 0 0 0-2.38-.472c-.819 0-1.652.155-2.401.471a6.1 6.1 0 0 0-2.009 1.36c-.588.59-1.057 1.316-1.4 2.168q-.516 1.28-.518 2.908.002 1.628.518 2.908c.343.859.805 1.577 1.4 2.168a6.2 6.2 0 0 0 2.009 1.36 6.2 6.2 0 0 0 2.401.47"/><path fill="#059669" d="M60.574 0H8.029C3.595 0 0 3.616 0 8.076v52.848C0 65.384 3.595 69 8.03 69h52.544c4.434 0 8.03-3.616 8.03-8.076V8.076c0-4.46-3.596-8.076-8.03-8.076"/><path fill="#fff" d="M35.555 41.04H23.522L12.16 28.6l11.362-12.441h12.033l-11.417 12.44z"/><path fill="#fff" d="M32.943 27.959h12.034L56.339 40.4 44.977 52.841H32.943l11.418-12.44z"/><mask id="b" width="24" height="26" x="12" y="16" maskUnits="userSpaceOnUse" style="mask-type:luminance"><path fill="#fff" d="M35.555 41.04H23.522L12.16 28.6l11.362-12.441h12.033l-11.417 12.44z"/></mask><g mask="url(#b)"><path fill="#059669" d="M30.01 43.667 17.102 28.6 31.62 11.35l.854.725L18.572 28.6 30.85 42.935z"/></g><mask id="c" width="24" height="26" x="33" y="27" maskUnits="userSpaceOnUse" style="mask-type:luminance"><path fill="#fff" d="M33.057 27.776H45.09l11.362 12.441L45.09 52.658H33.057l11.417-12.441z"/></mask><g mask="url(#c)"><path fill="#059669" d="m36.984 57.467-.847-.725 13.902-16.518-12.285-14.342.847-.725 12.901 15.06z"/></g></g><defs><clipPath id="a"><path fill="#fff" d="M0 0h421v69H0z"/></clipPath></defs></svg>
